# xmcd
#
# Track frame offsets:
#	150
#	10506
#	23424
#	33643
#	46550
#	58027
#	67874
#	79234
#	92290
#	104963
#	116749
#	128682
#	140051
#	152776
#
# Disc length: 2210 seconds
#
# Revision: 1
# Processed by: cddbd v1.5.2PL0 Copyright (c) Steve Scherf et al.
# Submitted via: audiograbber 1.83.01
#
DISCID=ac08a00e
DTITLE=Litttle Richard - Rips It Up CD 1
DYEAR=2009
DGENRE=R&B
TTITLE0=Taxi Blues
TTITLE1=Every Hour
TTITLE2=Get Rich Quick
TTITLE3=Thinkin' 'Bout My Mother
TTITLE4=Why Did You Leave Me
TTITLE5=Ain't Nothin' Happenin'
TTITLE6=Please Have Mery On Me
TTITLE7=I Brought It All On Myself
TTITLE8=Ain't That Good News
TTITLE9=Foot On The Wheel
TTITLE10=Always
TTITLE11=Rice, Beans, And Turnip Greens
TTITLE12=Little Richard's Boogie
TTITLE13=Directly From My Heart To You
EXTD=
EXTT0=
EXTT1=
EXTT2=
EXTT3=
EXTT4=
EXTT5=
EXTT6=
EXTT7=
EXTT8=
EXTT9=
EXTT10=
EXTT11=
EXTT12=
EXTT13=
PLAYORDER=
